<svg width="38" height="39" viewBox="0 0 38 39" fill="none" xmlns="http://www.w3.org/2000/svg">
<path fill-rule="evenodd" clip-rule="evenodd" d="M19 38.3262C29.4934 38.3262 38 29.8196 38 19.3262C38 8.83276 29.4934 0.326172 19 0.326172C8.50659 0.326172 0 8.83276 0 19.3262C0 29.8196 8.50659 38.3262 19 38.3262ZM9.75 18.8262C9.33579 18.8262 9 19.162 9 19.5762C9 19.9904 9.33579 20.3262 9.75 20.3262H28.25C28.6642 20.3262 29 19.9904 29 19.5762C29 19.162 28.6642 18.8262 28.25 18.8262H9.75ZM9 25.5762C9 25.162 9.33579 24.8262 9.75 24.8262H28.25C28.6642 24.8262 29 25.162 29 25.5762C29 25.9904 28.6642 26.3262 28.25 26.3262H9.75C9.33579 26.3262 9 25.9904 9 25.5762ZM9.75 12.8262C9.33579 12.8262 9 13.162 9 13.5762C9 13.9904 9.33579 14.3262 9.75 14.3262H28.25C28.6642 14.3262 29 13.9904 29 13.5762C29 13.162 28.6642 12.8262 28.25 12.8262H9.75Z" fill="#4E693C"/>
</svg>
